<svg width="24" height="24" viewBox="0 0 24 24" fill="none" xmlns="http://www.w3.org/2000/svg">
<path d="M17.6843 13.8949H20.2106V17.6843H24.0001V20.2106H20.2106V24.0001H17.6843V20.2106H13.8949V17.6843H17.6843V13.8949ZM2.52644 0.00012207H20.2106C21.6128 0.00012207 22.737 1.12433 22.737 2.52644V12.3791C21.9664 11.937 21.1201 11.6212 20.2106 11.4696V2.52644H2.52644V20.2106H11.4696C11.6212 21.1201 11.937 21.9664 12.3791 22.737H2.52644C1.12433 22.737 0.00012207 21.6128 0.00012207 20.2106V2.52644C0.00012207 1.12433 1.12433 0.00012207 2.52644 0.00012207ZM5.05275 5.05275H17.6843V7.57907H5.05275V5.05275ZM5.05275 10.1054H17.6843V11.4696C16.6106 11.6464 15.6254 12.0506 14.7538 12.6317H5.05275V10.1054ZM5.05275 15.158H11.3685V17.6843H5.05275V15.158Z" fill="url(#paint0_linear)"/>
<defs>
<linearGradient id="paint0_linear" x1="31.0001" y1="-19.4999" x2="-4.99988" y2="30.0001" gradientUnits="userSpaceOnUse">
<stop offset="0.315518" stop-color="#05BD8D"/>
<stop offset="0.613045" stop-color="#6C8980" stop-opacity="0.911932"/>
<stop offset="1" stop-color="#EF476F" stop-opacity="0.8"/>
</linearGradient>
</defs>
</svg>
