<svg width="48" height="48" viewBox="0 0 48 48" fill="none" xmlns="http://www.w3.org/2000/svg">
<path d="M40 24V14H44V26H40V24ZM40 34H44V30H40V34ZM20 26C25.34 26 36 28.68 36 34V40H4V34C4 28.68 14.66 26 20 26ZM20 8C22.1217 8 24.1566 8.84285 25.6569 10.3431C27.1571 11.8434 28 13.8783 28 16C28 18.1217 27.1571 20.1566 25.6569 21.6569C24.1566 23.1571 22.1217 24 20 24C17.8783 24 15.8434 23.1571 14.3431 21.6569C12.8429 20.1566 12 18.1217 12 16C12 13.8783 12.8429 11.8434 14.3431 10.3431C15.8434 8.84285 17.8783 8 20 8ZM20 29.8C14.06 29.8 7.8 32.72 7.8 34V36.2H32.2V34C32.2 32.72 25.94 29.8 20 29.8ZM20 11.8C18.8861 11.8 17.8178 12.2425 17.0301 13.0302C16.2425 13.8178 15.8 14.8861 15.8 16C15.8 17.1139 16.2425 18.1822 17.0301 18.9698C17.8178 19.7575 18.8861 20.2 20 20.2C21.1139 20.2 22.1822 19.7575 22.9698 18.9698C23.7575 18.1822 24.2 17.1139 24.2 16C24.2 14.8861 23.7575 13.8178 22.9698 13.0302C22.1822 12.2425 21.1139 11.8 20 11.8Z" fill="#EF476F"/>
</svg>
