<svg width="48" height="48" viewBox="0 0 48 48" fill="none" xmlns="http://www.w3.org/2000/svg">
<path d="M42.2 25L45 27.82L31.94 41L25 34L27.8 31.18L31.94 35.34L42.2 25ZM22 8C24.1217 8 26.1566 8.84285 27.6569 10.3431C29.1571 11.8434 30 13.8783 30 16C30 18.1217 29.1571 20.1566 27.6569 21.6569C26.1566 23.1571 24.1217 24 22 24C19.8783 24 17.8434 23.1571 16.3431 21.6569C14.8429 20.1566 14 18.1217 14 16C14 13.8783 14.8429 11.8434 16.3431 10.3431C17.8434 8.84285 19.8783 8 22 8ZM22 12C20.9391 12 19.9217 12.4214 19.1716 13.1716C18.4214 13.9217 18 14.9391 18 16C18 17.0609 18.4214 18.0783 19.1716 18.8284C19.9217 19.5786 20.9391 20 22 20C23.0609 20 24.0783 19.5786 24.8284 18.8284C25.5786 18.0783 26 17.0609 26 16C26 14.9391 25.5786 13.9217 24.8284 13.1716C24.0783 12.4214 23.0609 12 22 12ZM22 26C23.36 26 25 26.18 26.82 26.52L23.48 29.86L22 29.8C16.06 29.8 9.8 32.72 9.8 34V36.2H22.2L26 40H6V34C6 28.68 16.66 26 22 26Z" fill="#05BD8D"/>
</svg>
