<svg width="269" height="201" viewBox="0 0 269 201" fill="none" xmlns="http://www.w3.org/2000/svg">
<path d="M134.207 200.06C191.692 200.06 238.292 197.339 238.292 193.983C238.292 190.627 191.692 187.906 134.207 187.906C76.7221 187.906 30.1216 190.627 30.1216 193.983C30.1216 197.339 76.7221 200.06 134.207 200.06Z" fill="#F5F5F5"/>
<path d="M128.522 40.0588H216.91C217.352 40.0531 217.791 40.1394 218.198 40.3123C218.605 40.4851 218.971 40.7407 219.274 41.0627C219.577 41.3848 219.81 41.7664 219.957 42.1831C220.105 42.5999 220.164 43.0428 220.131 43.4838L212.922 159.615C212.852 160.538 212.44 161.402 211.767 162.036C211.093 162.671 210.207 163.031 209.282 163.046H120.888C120.447 163.047 120.01 162.957 119.605 162.782C119.2 162.607 118.835 162.351 118.533 162.03C118.231 161.708 117.998 161.328 117.849 160.912C117.7 160.497 117.638 160.056 117.667 159.615L124.871 43.4838C124.943 42.5606 125.358 41.6977 126.033 41.0641C126.708 40.4306 127.596 40.072 128.522 40.0588Z" fill="#407BFF"/>
<path opacity="0.4" d="M128.522 40.0588H216.91C217.352 40.0531 217.791 40.1394 218.198 40.3123C218.605 40.4851 218.971 40.7407 219.274 41.0627C219.577 41.3848 219.81 41.7664 219.957 42.1831C220.105 42.5999 220.164 43.0428 220.131 43.4838L212.922 159.615C212.852 160.538 212.44 161.402 211.767 162.036C211.093 162.671 210.207 163.031 209.282 163.046H120.888C120.447 163.047 120.01 162.957 119.605 162.782C119.2 162.607 118.835 162.351 118.533 162.03C118.231 161.708 117.998 161.328 117.849 160.912C117.7 160.497 117.638 160.056 117.667 159.615L124.871 43.4838C124.943 42.5606 125.358 41.6977 126.033 41.0641C126.708 40.4306 127.596 40.072 128.522 40.0588Z" fill="black"/>
<path d="M126.493 40.0588H214.881C215.323 40.0531 215.762 40.1394 216.168 40.3123C216.575 40.4851 216.942 40.7407 217.245 41.0627C217.548 41.3848 217.78 41.7664 217.928 42.1831C218.075 42.5999 218.135 43.0428 218.102 43.4838L210.892 159.615C210.823 160.539 210.41 161.403 209.736 162.038C209.061 162.673 208.173 163.032 207.247 163.046H118.859C118.418 163.047 117.981 162.957 117.576 162.782C117.171 162.607 116.806 162.351 116.504 162.03C116.202 161.708 115.969 161.328 115.82 160.912C115.671 160.497 115.609 160.056 115.638 159.615L122.842 43.4838C122.913 42.5602 123.327 41.6966 124.003 41.0627C124.678 40.4289 125.566 40.0708 126.493 40.0588Z" fill="#407BFF"/>
<path opacity="0.4" d="M120.432 156.776L206.469 157.806L213.448 45.3305H127.346L120.432 156.776Z" fill="black"/>
<path d="M117.919 155.638H205.068C209.867 111.666 211.343 87.9277 211.998 43.9777H124.85C124.195 87.9277 122.724 111.666 117.919 155.638Z" fill="white"/>
<path opacity="0.3" d="M201.573 74.5445H186.569C186.418 74.5463 186.268 74.5162 186.129 74.4561C185.99 74.3959 185.866 74.3072 185.764 74.1956C185.66 74.0853 185.58 73.9552 185.528 73.8131C185.477 73.671 185.454 73.5198 185.463 73.3689L186.392 58.3699C186.409 58.0884 186.533 57.8241 186.739 57.6308C186.944 57.4374 187.215 57.3293 187.497 57.3285H202.529C202.68 57.329 202.829 57.3602 202.968 57.4204C203.106 57.4806 203.231 57.5683 203.335 57.6784C203.438 57.7884 203.518 57.9184 203.57 58.0603C203.621 58.2023 203.643 58.3533 203.634 58.5041L202.7 73.5084C202.696 73.6509 202.663 73.7909 202.603 73.9204C202.544 74.0499 202.459 74.1663 202.354 74.2627C202.249 74.3592 202.126 74.4338 201.992 74.4821C201.858 74.5305 201.715 74.5517 201.573 74.5445ZM187.75 72.3328H200.532L201.31 59.5456H188.539L187.75 72.3328Z" fill="#407BFF"/>
<path opacity="0.3" d="M200.15 97.3974H185.151C185.001 97.3969 184.851 97.3658 184.713 97.3058C184.575 97.2458 184.45 97.1582 184.346 97.0484C184.242 96.9387 184.161 96.8087 184.11 96.6664C184.058 96.5242 184.036 96.3728 184.046 96.2217L184.974 81.2174C184.992 80.9364 185.116 80.6727 185.322 80.4802C185.527 80.2877 185.799 80.1808 186.08 80.1814H201.084C201.236 80.1795 201.386 80.2097 201.524 80.2698C201.663 80.3299 201.788 80.4187 201.89 80.5303C201.993 80.6406 202.073 80.7707 202.125 80.9128C202.177 81.0549 202.199 81.206 202.19 81.357L201.256 96.3559C201.24 96.6379 201.116 96.9029 200.91 97.0966C200.705 97.2902 200.433 97.3979 200.15 97.3974ZM186.327 95.1803H199.109L199.903 82.3931H187.122L186.327 95.1803Z" fill="#407BFF"/>
<path opacity="0.3" d="M198.733 120.245H183.734C183.582 120.245 183.432 120.215 183.293 120.155C183.153 120.095 183.027 120.006 182.924 119.896C182.819 119.787 182.738 119.656 182.688 119.514C182.637 119.371 182.616 119.22 182.628 119.069L183.557 104.07C183.575 103.789 183.699 103.524 183.904 103.331C184.11 103.138 184.381 103.029 184.663 103.029H199.667C199.818 103.029 199.967 103.06 200.106 103.12C200.244 103.18 200.369 103.268 200.472 103.378C200.575 103.488 200.655 103.619 200.706 103.761C200.758 103.903 200.781 104.053 200.773 104.204L199.839 119.235C199.815 119.512 199.688 119.769 199.483 119.956C199.278 120.143 199.01 120.246 198.733 120.245ZM184.91 118.033H197.692L198.486 105.246H185.704L184.91 118.033Z" fill="#407BFF"/>
<path opacity="0.3" d="M197.316 143.097H182.317C182.165 143.097 182.015 143.065 181.876 143.005C181.737 142.945 181.611 142.858 181.506 142.748C181.402 142.639 181.321 142.509 181.27 142.366C181.219 142.224 181.199 142.072 181.211 141.922L182.14 126.917C182.159 126.637 182.283 126.374 182.489 126.181C182.694 125.989 182.964 125.882 183.246 125.881H198.25C198.401 125.879 198.551 125.909 198.69 125.97C198.829 126.03 198.953 126.119 199.055 126.23C199.159 126.34 199.239 126.471 199.29 126.613C199.342 126.755 199.364 126.906 199.356 127.057L198.422 142.056C198.404 142.337 198.28 142.602 198.074 142.795C197.869 142.988 197.598 143.096 197.316 143.097ZM183.493 140.88H196.274L197.069 128.093H184.287L183.493 140.88Z" fill="#407BFF"/>
<path opacity="0.3" d="M139.51 63.9745H173.486C173.992 63.9666 174.477 63.7701 174.845 63.4235C175.213 63.0769 175.439 62.6053 175.478 62.1009C175.496 61.8599 175.463 61.6177 175.383 61.3898C175.302 61.1619 175.175 60.9533 175.009 60.7771C174.844 60.601 174.643 60.4612 174.421 60.3665C174.198 60.2719 173.959 60.2245 173.717 60.2274H139.747C139.24 60.2329 138.754 60.4285 138.385 60.7756C138.016 61.1226 137.791 61.5957 137.755 62.1009C137.737 62.3416 137.769 62.5833 137.85 62.8108C137.93 63.0383 138.057 63.2467 138.222 63.4227C138.387 63.5988 138.586 63.7388 138.808 63.8337C139.03 63.9287 139.269 63.9766 139.51 63.9745Z" fill="#407BFF"/>
<path opacity="0.3" d="M145.48 71.6509H172.993C173.498 71.643 173.983 71.4466 174.351 71.1C174.72 70.7534 174.945 70.2817 174.984 69.7774C175.003 69.5363 174.971 69.2941 174.891 69.0659C174.811 68.8377 174.685 68.6287 174.519 68.452C174.354 68.2754 174.154 68.135 173.932 68.0397C173.71 67.9444 173.47 67.8963 173.229 67.8985H145.727C145.22 67.9065 144.735 68.1037 144.367 68.4514C143.998 68.7991 143.773 69.2721 143.735 69.7774C143.718 70.0171 143.75 70.2579 143.829 70.4847C143.909 70.7115 144.035 70.9193 144.199 71.0952C144.362 71.2712 144.561 71.4113 144.781 71.5069C145.002 71.6026 145.24 71.6516 145.48 71.6509Z" fill="#407BFF"/>
<path opacity="0.3" d="M137.852 90.7514H171.827C172.069 90.7493 172.308 90.7972 172.53 90.8922C172.751 90.9871 172.951 91.1271 173.116 91.3031C173.281 91.4792 173.408 91.6876 173.488 91.9151C173.568 92.1426 173.601 92.3843 173.583 92.6249C173.544 93.1293 173.318 93.6009 172.95 93.9475C172.581 94.2941 172.097 94.4906 171.591 94.4985H137.615C137.374 94.5006 137.135 94.4527 136.913 94.3577C136.691 94.2627 136.492 94.1228 136.327 93.9467C136.162 93.7707 136.035 93.5623 135.955 93.3348C135.874 93.1073 135.842 92.8656 135.86 92.6249C135.899 92.1206 136.124 91.6489 136.493 91.3024C136.861 90.9558 137.346 90.7593 137.852 90.7514Z" fill="#407BFF"/>
<path opacity="0.3" d="M144.788 83.0747H172.322C172.563 83.0718 172.803 83.1192 173.025 83.2138C173.248 83.3085 173.448 83.4483 173.614 83.6244C173.779 83.8006 173.906 84.0092 173.987 84.2371C174.068 84.465 174.1 84.7072 174.082 84.9482C174.045 85.4535 173.82 85.9265 173.451 86.2742C173.083 86.6219 172.597 86.8191 172.091 86.8271H144.557C144.315 86.8301 144.074 86.7826 143.852 86.6876C143.629 86.5927 143.428 86.4523 143.263 86.2756C143.097 86.0988 142.97 85.8895 142.89 85.661C142.809 85.4325 142.777 85.1897 142.796 84.9482C142.835 84.4439 143.061 83.9722 143.429 83.6256C143.797 83.2791 144.282 83.0826 144.788 83.0747Z" fill="#407BFF"/>
<path opacity="0.3" d="M136.676 109.674H170.652C171.158 109.667 171.642 109.47 172.011 109.123C172.379 108.777 172.605 108.305 172.643 107.801C172.661 107.56 172.629 107.318 172.548 107.09C172.468 106.862 172.34 106.653 172.175 106.477C172.009 106.301 171.809 106.161 171.587 106.066C171.364 105.972 171.124 105.924 170.883 105.927H136.891C136.385 105.935 135.901 106.132 135.532 106.478C135.164 106.825 134.938 107.297 134.899 107.801C134.881 108.043 134.914 108.287 134.996 108.516C135.077 108.745 135.206 108.954 135.373 109.131C135.541 109.307 135.743 109.447 135.967 109.54C136.192 109.634 136.433 109.68 136.676 109.674Z" fill="#407BFF"/>
<path opacity="0.3" d="M156.507 117.351H170.174C170.68 117.343 171.164 117.147 171.533 116.8C171.901 116.453 172.127 115.982 172.166 115.477C172.184 115.236 172.151 114.994 172.071 114.766C171.99 114.537 171.863 114.328 171.697 114.152C171.532 113.975 171.332 113.835 171.109 113.74C170.887 113.644 170.647 113.596 170.405 113.599H156.753C156.247 113.608 155.763 113.805 155.394 114.153C155.026 114.5 154.801 114.973 154.762 115.477C154.744 115.717 154.776 115.958 154.856 116.185C154.935 116.412 155.061 116.619 155.225 116.795C155.389 116.971 155.587 117.111 155.808 117.207C156.028 117.303 156.266 117.352 156.507 117.351Z" fill="#407BFF"/>
<path opacity="0.3" d="M142.662 117.351H149.871C150.377 117.343 150.862 117.147 151.23 116.8C151.598 116.453 151.824 115.982 151.863 115.477C151.881 115.236 151.848 114.994 151.768 114.766C151.687 114.537 151.56 114.328 151.395 114.152C151.229 113.975 151.029 113.835 150.806 113.74C150.584 113.644 150.344 113.596 150.102 113.599H142.893C142.386 113.608 141.902 113.805 141.533 114.153C141.165 114.5 140.94 114.973 140.901 115.477C140.883 115.719 140.915 115.961 140.996 116.189C141.077 116.416 141.204 116.625 141.369 116.801C141.535 116.977 141.735 117.117 141.958 117.212C142.18 117.307 142.42 117.354 142.662 117.351Z" fill="#407BFF"/>
<path opacity="0.3" d="M135.28 132.527H169.256C169.762 132.519 170.247 132.323 170.615 131.976C170.983 131.63 171.209 131.158 171.248 130.654C171.266 130.412 171.233 130.17 171.153 129.942C171.072 129.714 170.945 129.505 170.779 129.328C170.614 129.151 170.414 129.011 170.191 128.916C169.969 128.821 169.729 128.773 169.487 128.775H135.49C134.983 128.783 134.498 128.98 134.129 129.328C133.761 129.675 133.536 130.148 133.498 130.654C133.48 130.897 133.513 131.141 133.595 131.37C133.677 131.599 133.806 131.809 133.974 131.985C134.142 132.162 134.345 132.301 134.57 132.395C134.795 132.488 135.037 132.533 135.28 132.527Z" fill="#407BFF"/>
<path opacity="0.3" d="M141.244 140.204H168.757C169.263 140.195 169.748 139.997 170.116 139.65C170.484 139.302 170.71 138.83 170.748 138.325C170.766 138.084 170.734 137.842 170.653 137.614C170.573 137.386 170.445 137.177 170.28 137.001C170.114 136.825 169.914 136.685 169.691 136.591C169.469 136.496 169.229 136.449 168.988 136.451H141.475C140.97 136.459 140.485 136.656 140.117 137.002C139.748 137.349 139.522 137.821 139.484 138.325C139.466 138.566 139.498 138.809 139.579 139.037C139.659 139.265 139.787 139.474 139.952 139.651C140.117 139.827 140.318 139.967 140.54 140.063C140.763 140.158 141.002 140.206 141.244 140.204Z" fill="#407BFF"/>
<path d="M193.317 70.4378C193.094 70.4395 192.877 70.372 192.694 70.2446L186.912 66.2989C186.692 66.1244 186.545 65.8727 186.503 65.5945C186.461 65.3164 186.525 65.0325 186.684 64.8002C186.843 64.5679 187.084 64.4044 187.358 64.3428C187.633 64.2812 187.921 64.3261 188.163 64.4683L193.102 67.8449C194.906 65.6708 200.049 59.7925 204.327 57.8653C204.46 57.8061 204.603 57.7737 204.749 57.7698C204.894 57.7659 205.039 57.7908 205.175 57.8429C205.311 57.895 205.435 57.9733 205.54 58.0734C205.646 58.1735 205.731 58.2934 205.79 58.4263C205.849 58.5592 205.882 58.7025 205.886 58.8479C205.889 58.9933 205.865 59.1381 205.812 59.2739C205.76 59.4098 205.682 59.534 205.582 59.6396C205.482 59.7451 205.362 59.83 205.229 59.8892C200.559 61.9667 194.251 69.9386 194.192 70.0191C194.087 70.1502 193.954 70.2559 193.802 70.3284C193.651 70.4009 193.485 70.4383 193.317 70.4378Z" fill="#407BFF"/>
<path d="M190.627 92.8449C190.34 92.8456 190.063 92.7361 189.854 92.5389L184.824 87.7074C184.611 87.5031 184.487 87.2223 184.48 86.9269C184.474 86.6314 184.585 86.3454 184.789 86.1319C184.994 85.9183 185.274 85.7946 185.57 85.7881C185.865 85.7815 186.151 85.8927 186.365 86.097L190.659 90.2252C192.78 88.3302 198.712 83.284 203.2 82.06C203.341 82.0216 203.488 82.0113 203.633 82.0298C203.778 82.0482 203.918 82.0951 204.045 82.1676C204.171 82.2401 204.283 82.337 204.372 82.4525C204.462 82.5681 204.528 82.7001 204.566 82.8411C204.604 82.9821 204.615 83.1293 204.596 83.2742C204.578 83.4192 204.531 83.5591 204.458 83.686C204.386 83.8128 204.289 83.9242 204.173 84.0136C204.058 84.1031 203.926 84.1689 203.785 84.2073C198.889 85.544 191.475 92.4906 191.4 92.5603C191.296 92.6563 191.175 92.7309 191.042 92.7797C190.909 92.8285 190.768 92.8507 190.627 92.8449Z" fill="#407BFF"/>
<path opacity="0.4" d="M181.217 46.6188H182.827C183.259 46.6231 183.687 46.5423 184.087 46.3811C184.487 46.2199 184.852 45.9815 185.16 45.6794C185.468 45.3773 185.713 45.0175 185.882 44.6205C186.051 44.2235 186.141 43.7971 186.145 43.3657V40.3702C186.145 40.3267 186.136 40.2837 186.119 40.2436C186.103 40.2035 186.078 40.1672 186.047 40.1367C186.016 40.1062 185.979 40.0822 185.939 40.0661C185.899 40.0499 185.855 40.042 185.812 40.0427H181.26C181.162 40.0441 181.068 40.0836 180.999 40.1527C180.93 40.2219 180.891 40.3153 180.889 40.4131L180.911 46.2914C180.911 46.3746 180.942 46.4548 180.999 46.5156C181.056 46.5765 181.134 46.6134 181.217 46.6188Z" fill="black"/>
<path d="M156.512 34.6261H183.922C184.314 34.615 184.703 34.6908 185.062 34.8483C185.421 35.0058 185.74 35.2409 185.997 35.5367C186.253 35.8325 186.441 36.1817 186.547 36.5589C186.652 36.9362 186.673 37.3322 186.607 37.7183L185.785 43.822C185.652 44.6656 185.228 45.4362 184.587 46.0007C183.946 46.5653 183.128 46.8883 182.274 46.9141H154.853C154.462 46.9253 154.073 46.8494 153.714 46.6919C153.355 46.5345 153.036 46.2993 152.779 46.0035C152.522 45.7077 152.334 45.3586 152.229 44.9813C152.124 44.604 152.103 44.2081 152.169 43.822L152.996 37.7183C153.129 36.8737 153.554 36.1024 154.196 35.5378C154.838 34.9732 155.657 34.6507 156.512 34.6261Z" fill="#407BFF"/>
<path opacity="0.6" d="M156.512 34.6261H183.922C184.314 34.615 184.703 34.6908 185.062 34.8483C185.421 35.0058 185.74 35.2409 185.997 35.5367C186.253 35.8325 186.441 36.1817 186.547 36.5589C186.652 36.9362 186.673 37.3322 186.607 37.7183L185.785 43.822C185.652 44.6656 185.228 45.4362 184.587 46.0007C183.946 46.5653 183.128 46.8883 182.274 46.9141H154.853C154.462 46.9253 154.073 46.8494 153.714 46.6919C153.355 46.5345 153.036 46.2993 152.779 46.0035C152.522 45.7077 152.334 45.3586 152.229 44.9813C152.124 44.604 152.103 44.2081 152.169 43.822L152.996 37.7183C153.129 36.8737 153.554 36.1024 154.196 35.5378C154.838 34.9732 155.657 34.6507 156.512 34.6261Z" fill="white"/>
<path opacity="0.5" d="M183.214 37.5786H170.867C170.752 37.5878 170.637 37.5732 170.529 37.5357C170.42 37.4982 170.32 37.4386 170.236 37.3607C170.151 37.2828 170.084 37.1882 170.038 37.083C169.992 36.9777 169.968 36.8641 169.968 36.7492C169.968 36.6343 169.992 36.5206 170.038 36.4154C170.084 36.3101 170.151 36.2156 170.236 36.1377C170.32 36.0598 170.42 36.0002 170.529 35.9627C170.637 35.9252 170.752 35.9106 170.867 35.9198H183.214C183.422 35.9366 183.617 36.0312 183.759 36.1849C183.9 36.3386 183.979 36.5401 183.979 36.7492C183.979 36.9583 183.9 37.1598 183.759 37.3135C183.617 37.4671 183.422 37.5618 183.214 37.5786Z" fill="white"/>
<path opacity="0.5" d="M166.76 37.5786H165.461C165.346 37.5878 165.231 37.5732 165.122 37.5357C165.014 37.4982 164.914 37.4386 164.83 37.3607C164.745 37.2828 164.678 37.1882 164.632 37.083C164.586 36.9777 164.562 36.8641 164.562 36.7492C164.562 36.6343 164.586 36.5206 164.632 36.4154C164.678 36.3101 164.745 36.2156 164.83 36.1377C164.914 36.0598 165.014 36.0002 165.122 35.9627C165.231 35.9252 165.346 35.9106 165.461 35.9198H166.76C166.874 35.9106 166.99 35.9252 167.098 35.9627C167.207 36.0002 167.306 36.0598 167.391 36.1377C167.475 36.2156 167.543 36.3101 167.589 36.4154C167.635 36.5206 167.659 36.6343 167.659 36.7492C167.659 36.8641 167.635 36.9777 167.589 37.083C167.543 37.1882 167.475 37.2828 167.391 37.3607C167.306 37.4386 167.207 37.4982 167.098 37.5357C166.99 37.5732 166.874 37.5878 166.76 37.5786Z" fill="white"/>
<path d="M90.9707 156.625L96.2692 157.64L108.793 98.7391L101.015 97.2521L90.9707 156.625Z" fill="#407BFF"/>
<path d="M109.593 57.8438L115.938 55.7555L116.378 53.4525L110.468 53.27L109.593 57.8438Z" fill="#263238"/>
<path d="M109.432 56.5017L116.658 54.1504L109.234 96.4308L101.455 94.9492L109.432 56.5017Z" fill="#407BFF"/>
<path d="M101.901 97.3209L109.03 98.703L109.475 96.404L102.347 95.0219L101.901 97.3209Z" fill="#263238"/>
<path d="M91.926 163.599C91.8562 163.947 92.0011 164.27 92.2481 164.318C92.495 164.366 92.7527 164.119 92.8171 163.781C92.8815 163.443 92.7366 163.11 92.4896 163.062C92.2427 163.013 91.9904 163.255 91.926 163.599Z" fill="#407BFF"/>
<path d="M91.5612 163.642L93.1395 163.942L96.2692 157.64L90.9707 156.625L91.5612 163.642Z" fill="#263238"/>
<path d="M101.106 84.245C100.994 84.2444 100.884 84.2157 100.786 84.1616C100.688 84.1074 100.604 84.0295 100.544 83.935C100.484 83.8405 100.448 83.7324 100.44 83.6206C100.433 83.5088 100.453 83.3968 100.5 83.2948C103.828 76.1604 106.528 61.2581 106.893 57.715C106.945 57.2011 107.134 56.7105 107.44 56.2942C107.746 55.8779 108.158 55.551 108.632 55.3476L110.388 54.5907C110.468 54.5555 110.555 54.5364 110.643 54.5346C110.73 54.5328 110.817 54.5482 110.899 54.5802C110.981 54.6121 111.056 54.6597 111.119 54.7205C111.182 54.7813 111.233 54.8539 111.268 54.9343C111.304 55.0146 111.323 55.1012 111.324 55.1889C111.326 55.2766 111.311 55.3639 111.279 55.4456C111.247 55.5274 111.199 55.602 111.138 55.6654C111.078 55.7287 111.005 55.7794 110.925 55.8147L109.169 56.5716C108.913 56.6827 108.691 56.8601 108.525 57.0856C108.36 57.3111 108.258 57.5766 108.23 57.8546C107.849 61.5748 105.17 76.4717 101.724 83.8585C101.669 83.9755 101.581 84.0742 101.472 84.1428C101.362 84.2113 101.235 84.2468 101.106 84.245Z" fill="#263238"/>
<path d="M76.3743 55.7768C75.0376 58.0691 73.6901 60.5009 72.4179 62.8844C71.7898 64.0869 71.1778 65.2894 70.5927 66.4973C70.0075 67.7051 69.46 68.9237 68.9822 70.1369L68.8909 70.357C68.8716 70.392 68.8589 70.4302 68.8533 70.4698C68.8229 70.647 68.8103 70.8268 68.8158 71.0066C68.839 71.5388 68.9145 72.0674 69.0412 72.5849C69.3483 73.821 69.743 75.0337 70.2222 76.2138C70.7 77.4485 71.2476 78.6886 71.8327 79.934C72.4179 81.1795 73.0137 82.4249 73.5989 83.6381L71.049 85.3774C69.1459 83.1662 67.4547 80.7811 65.9974 78.2538C65.2231 76.9255 64.5674 75.5315 64.038 74.088C63.7438 73.2656 63.5281 72.4172 63.3938 71.5542C63.3217 71.0332 63.3002 70.5064 63.3294 69.9813C63.3511 69.6709 63.3942 69.3624 63.4582 69.0579C63.4904 68.9022 63.5441 68.7251 63.5924 68.5587L63.6783 68.2849C64.5489 65.4874 65.6255 62.7582 66.8993 60.1198C68.1476 57.5033 69.5438 54.96 71.0812 52.5022L76.3743 55.7768Z" fill="#FFC3BD"/>
<path d="M73.1963 82.8651L75.5959 84.7333L71.9347 87.761C71.9347 87.761 70.2652 86.1505 70.5229 84.1696L73.1963 82.8651Z" fill="#FFC3BD"/>
<path d="M76.5729 87.4604L74.1303 90.6008L71.9293 87.761L75.5958 84.7333L76.5729 87.4604Z" fill="#FFC3BD"/>
<path d="M90.1865 33.4019C90.2563 33.724 90.4818 33.9387 90.6912 33.9387C90.9005 33.9387 91.024 33.5951 90.9596 33.2731C90.8952 32.951 90.6643 32.7362 90.455 32.7631C90.2456 32.7899 90.1436 33.0744 90.1865 33.4019Z" fill="#263238"/>
<path d="M90.4716 33.9602C91.0626 34.8745 91.7761 35.7035 92.592 36.4242C92.4016 36.6283 92.1689 36.7883 91.9102 36.8931C91.6515 36.9979 91.373 37.0449 91.0943 37.0309L90.4716 33.9602Z" fill="#ED847E"/>
<path d="M88.6513 31.8399C88.6033 31.8382 88.5575 31.8191 88.5224 31.7863C88.5038 31.7687 88.4889 31.7475 88.4787 31.7239C88.4685 31.7004 88.4633 31.675 88.4633 31.6494C88.4633 31.6237 88.4685 31.5983 88.4787 31.5748C88.4889 31.5513 88.5038 31.53 88.5224 31.5125C88.7248 31.2787 88.9812 31.0978 89.2694 30.9855C89.5575 30.8733 89.8687 30.833 90.1759 30.8683C90.2009 30.8725 90.2248 30.8816 90.2464 30.8951C90.2679 30.9086 90.2865 30.9262 90.3012 30.9469C90.3159 30.9676 90.3264 30.9909 90.3321 31.0157C90.3377 31.0404 90.3385 31.066 90.3342 31.0911C90.33 31.1161 90.3209 31.14 90.3074 31.1615C90.2939 31.183 90.2763 31.2017 90.2556 31.2164C90.235 31.2311 90.2116 31.2416 90.1868 31.2473C90.1621 31.2529 90.1365 31.2537 90.1115 31.2494C89.8669 31.2281 89.6209 31.2658 89.3939 31.3592C89.1669 31.4526 88.9657 31.599 88.807 31.7863C88.7866 31.8061 88.762 31.8212 88.7351 31.8305C88.7082 31.8398 88.6796 31.843 88.6513 31.8399Z" fill="#263238"/>
<path d="M80.9481 37.9704C81.5386 40.982 82.1291 46.4952 80.0248 48.5029C80.0248 48.5029 80.8461 51.5521 86.4345 51.5521C92.5811 51.5521 89.3763 48.5029 89.3763 48.5029C86.0211 47.6977 86.107 45.2122 86.6922 42.8716L80.9481 37.9704Z" fill="#FFC3BD"/>
<path d="M78.8332 48.7285C78.3876 47.6548 79.37 44.4338 80.3631 44.1278C81.4851 43.7843 85.7314 43.9775 87.8787 44.8633C89.3872 46.3879 89.822 49.5498 89.822 49.5498L78.8332 48.7285Z" fill="#263238"/>
<path d="M61.2787 189.302C61.4438 189.361 61.619 189.387 61.7941 189.378C61.9692 189.368 62.1408 189.324 62.2987 189.248C62.3611 189.193 62.4042 189.12 62.4216 189.039C62.439 188.957 62.4298 188.873 62.3953 188.797C62.3766 188.734 62.3443 188.675 62.3008 188.625C62.2572 188.575 62.2034 188.535 62.143 188.507C61.6062 188.244 60.3125 188.765 60.2588 188.786C60.2413 188.793 60.2263 188.805 60.2158 188.82C60.2052 188.835 60.1996 188.854 60.1997 188.872C60.1995 188.891 60.2043 188.909 60.2138 188.925C60.2233 188.942 60.237 188.955 60.2534 188.964C60.5815 189.114 60.9254 189.228 61.2787 189.302ZM61.9444 188.647L62.0625 188.684C62.0973 188.7 62.1282 188.723 62.1533 188.752C62.1783 188.78 62.1968 188.814 62.2074 188.851C62.2611 189.028 62.2074 189.082 62.1752 189.098C61.9551 189.286 61.1338 189.098 60.5648 188.883C61.0012 188.702 61.4726 188.621 61.9444 188.647Z" fill="#407BFF"/>
<path d="M60.275 188.974H60.3233C60.7904 188.84 61.7835 188.132 61.7943 187.665C61.7958 187.592 61.772 187.521 61.7269 187.464C61.6818 187.407 61.6183 187.368 61.5473 187.353C61.4766 187.328 61.4014 187.318 61.3265 187.323C61.2516 187.329 61.1787 187.35 61.1125 187.385C60.5757 187.665 60.216 188.808 60.2052 188.856C60.1962 188.871 60.1914 188.888 60.1914 188.905C60.1914 188.922 60.1962 188.938 60.2052 188.953L60.275 188.974ZM61.4399 187.52H61.4829C61.601 187.563 61.601 187.622 61.601 187.643C61.601 187.922 60.9353 188.475 60.4576 188.717C60.5842 188.264 60.8442 187.86 61.2037 187.557C61.276 187.518 61.3592 187.505 61.4399 187.52Z" fill="#407BFF"/>
<path d="M90.9597 189.994C91.4966 189.994 92.0012 189.919 92.1676 189.683C92.2125 189.621 92.2368 189.547 92.2368 189.471C92.2368 189.394 92.2125 189.32 92.1676 189.259C92.1341 189.202 92.0892 189.152 92.0356 189.113C91.982 189.074 91.9209 189.047 91.8562 189.033C91.1745 188.845 89.7358 189.661 89.6767 189.699C89.659 189.709 89.6448 189.724 89.6361 189.742C89.6275 189.76 89.6248 189.781 89.6284 189.801C89.6315 189.82 89.6404 189.837 89.6539 189.85C89.6674 189.864 89.6848 189.873 89.7036 189.876C90.1179 189.953 90.5383 189.992 90.9597 189.994ZM91.6147 189.194C91.6782 189.195 91.7415 189.204 91.8026 189.221C91.842 189.228 91.8795 189.243 91.912 189.266C91.9446 189.29 91.9714 189.32 91.9904 189.355C92.0602 189.473 92.0388 189.538 91.9904 189.57C91.7972 189.838 90.7611 189.844 89.9935 189.736C90.4927 189.45 91.0437 189.266 91.6147 189.194Z" fill="#407BFF"/>
<path d="M89.7196 189.882H89.7572C90.2564 189.661 91.2388 188.77 91.1637 188.303C91.1637 188.196 91.0671 188.062 90.7986 188.035C90.7025 188.023 90.605 188.032 90.5124 188.061C90.4199 188.089 90.3345 188.137 90.2618 188.201C89.725 188.631 89.6284 189.737 89.623 189.785C89.6203 189.801 89.6224 189.818 89.629 189.833C89.6357 189.849 89.6467 189.862 89.6606 189.871C89.6781 189.882 89.6993 189.886 89.7196 189.882ZM90.7235 188.212H90.7825C90.9543 188.212 90.9651 188.298 90.9704 188.319C91.0187 188.599 90.3477 189.296 89.8431 189.602C89.8874 189.135 90.0749 188.693 90.3799 188.336C90.4765 188.255 90.5981 188.212 90.7235 188.212Z" fill="#407BFF"/>
<path d="M85.1997 189.785H89.3118L89.7198 180.262H85.6077L85.1997 189.785Z" fill="#FFC3BD"/>
<path d="M55.5239 187.879L59.6521 188.749L62.5671 179.881L58.4335 179.011L55.5239 187.879Z" fill="#FFC3BD"/>
<path d="M60.1245 188.346L55.6098 187.369C55.5301 187.352 55.4469 187.362 55.3737 187.398C55.3005 187.434 55.2418 187.494 55.2072 187.568L53.6397 190.971C53.6024 191.054 53.5844 191.145 53.5869 191.236C53.5894 191.327 53.6124 191.416 53.6542 191.497C53.696 191.578 53.7554 191.649 53.8282 191.704C53.901 191.759 53.9851 191.796 54.0745 191.814C55.6581 192.125 56.4419 192.201 58.4281 192.63C59.6467 192.893 62.406 193.564 64.0917 193.929C65.7773 194.294 66.3624 192.673 65.7021 192.372C62.755 191.025 61.5203 189.839 60.7258 188.733C60.5792 188.535 60.3654 188.397 60.1245 188.346Z" fill="#263238"/>
<path d="M89.2849 189.307H84.8185C84.7374 189.307 84.6588 189.335 84.5955 189.386C84.5321 189.437 84.4878 189.507 84.4696 189.586L83.659 193.242C83.6375 193.33 83.6366 193.422 83.6565 193.511C83.6764 193.6 83.7165 193.683 83.7736 193.753C83.8307 193.824 83.9034 193.88 83.986 193.918C84.0685 193.956 84.1587 193.975 84.2495 193.972C85.86 193.945 88.2113 193.854 90.2459 193.854C92.624 193.854 91.7007 193.983 94.4922 193.983C96.1832 193.983 96.6395 192.276 95.9416 192.12C92.7206 191.417 93.0803 191.342 90.2995 189.629C89.9995 189.426 89.6471 189.314 89.2849 189.307Z" fill="#263238"/>
<path d="M72.6593 49.4478C68.8048 50.3282 65.6322 60.1843 65.6322 60.1843L73.3679 66.0894C75.3717 63.9538 76.7868 61.3345 77.4746 58.4879C78.8006 53.2968 76.5996 48.5244 72.6593 49.4478Z" fill="#263238"/>
<path opacity="0.2" d="M75.9662 56.668C73.8726 58.7347 73.1908 62.5086 73.0244 65.794L73.368 66.0571C75.374 63.9231 76.7894 61.3032 77.4747 58.4556C77.5552 58.1496 77.6196 57.8383 77.6787 57.5376L75.9662 56.668Z" fill="black"/>
<path d="M95.7001 49.641C95.7001 49.641 100.075 54.5852 95.9417 85.1843H73.9318C73.7815 81.8077 75.902 65.3217 72.6434 49.4317C75.0759 48.9632 77.5361 48.653 80.0087 48.503C83.1232 48.3203 86.2457 48.3203 89.3602 48.503C91.4999 48.7167 93.6197 49.0972 95.7001 49.641Z" fill="#263238"/>
<path opacity="0.2" d="M89.7198 180.262L89.5104 185.174H85.3929L85.6023 180.262H89.7198Z" fill="black"/>
<path opacity="0.2" d="M58.4334 179.011L62.567 179.881L61.0585 184.454L56.9303 183.585L58.4334 179.011Z" fill="black"/>
<path d="M79.2302 34.916C80.3039 38.8563 80.7012 41.2183 83.133 42.8556C86.7941 45.325 91.3518 42.4959 91.4914 38.3141C91.6202 34.5563 89.8809 28.7424 85.64 27.9479C84.7083 27.7677 83.746 27.8288 82.8446 28.1255C81.9432 28.4222 81.1328 28.9446 80.4903 29.643C79.8479 30.3414 79.3948 31.1926 79.1743 32.1155C78.9537 33.0385 78.973 34.0025 79.2302 34.916Z" fill="#FFC3BD"/>
<path d="M83.1598 42.3993H83.1061C82.4706 42.4029 81.8434 42.2547 81.2767 41.9671C80.7099 41.6795 80.22 41.2609 79.8476 40.7459C78.6129 39.0227 76.8789 36.0326 76.6803 32.5808C78.2478 30.9274 84.1368 29.8376 86.7619 30.4335C88.9468 30.9327 88.6301 37.1545 86.5633 40.5204C86.2018 41.0965 85.6998 41.5712 85.1044 41.8999C84.5091 42.2286 83.8399 42.4004 83.1598 42.3993Z" fill="#FFC3BD"/>
<path opacity="0.8" d="M83.1598 42.3993H83.1061C82.4706 42.4029 81.8434 42.2547 81.2767 41.9671C80.7099 41.6795 80.22 41.2609 79.8476 40.7459C78.6129 39.0227 76.8789 36.0326 76.6803 32.5808C78.2478 30.9274 84.1368 29.8376 86.7619 30.4335C88.9468 30.9327 88.6301 37.1545 86.5633 40.5204C86.2018 41.0965 85.6998 41.5712 85.1044 41.8999C84.5091 42.2286 83.8399 42.4004 83.1598 42.3993Z" fill="#263238"/>
<path d="M79.0693 33.9818C78.3656 33.9623 77.6836 33.734 77.11 33.3258C76.5364 32.9176 76.0973 32.348 75.8483 31.6895C75.3813 30.2938 75.8752 27.3466 78.6828 27.2607C81.4904 27.1748 81.7802 25.5751 80.916 25.2476C82.7519 25.3818 82.1721 26.6648 82.1721 26.6648C82.6606 26.6648 83.1223 25.3496 85.9299 25.457C88.7375 25.5644 90.1064 24.9631 89.7467 24.335C91.0727 24.6034 90.7023 26.2139 89.5803 26.6487C89.5803 26.6487 92.2376 28.6618 92.8657 27.556C93.3113 28.3612 92.4309 29.3275 89.0757 28.8873C90.4124 30.7608 87.2451 30.3421 85.8977 31.1903C84.5503 32.0385 80.9213 34.116 79.0693 33.9818Z" fill="#263238"/>
<path d="M85.9352 34.7333C86.2059 35.7101 86.7884 36.5716 87.594 37.1866C88.6677 37.9811 89.4622 37.1866 89.387 35.9841C89.3226 34.9105 88.6784 33.1658 87.5027 32.8437C86.3271 32.5216 85.6292 33.5469 85.9352 34.7333Z" fill="#FFC3BD"/>
<path d="M88.1413 85.1842C88.1413 85.1842 83.471 116.61 80.9103 128.383C78.1081 141.266 63.0608 183.928 63.0608 183.928L55.7009 182.318C55.7009 182.318 66.2227 147.553 68.5848 129.531C70.3939 115.687 73.953 85.1627 73.953 85.1627L88.1413 85.1842Z" fill="#263238"/>
<path d="M64.8272 181.475L63.4529 184.159L55.1697 182.366L55.8676 179.875L64.8272 181.475Z" fill="#407BFF"/>
<path opacity="0.3" d="M85.189 96.3825C79.7939 97.4562 80.3575 117.56 81.0178 127.91C82.5693 120.593 84.8508 106.518 86.3861 96.5275C86.0143 96.3474 85.593 96.2964 85.189 96.3825Z" fill="black"/>
<path d="M95.9417 85.1842C95.9417 85.1842 96.5107 115.928 96.0598 128.469C95.5981 141.513 91.0405 184.223 91.0405 184.223H84.0617C84.0617 184.223 83.8094 142.276 83.4981 129.467C83.1599 115.51 81.4742 85.1842 81.4742 85.1842H95.9417Z" fill="#263238"/>
<path d="M92.3825 181.448C92.4147 181.448 91.9853 184.336 91.9853 184.336H83.5142L83.2833 181.759L92.3825 181.448Z" fill="#407BFF"/>
<path d="M95.8022 49.0989C96.8758 49.5445 97.9119 50.3443 98.2232 53.0016C98.5239 55.5516 97.9441 77.8996 97.2462 85.034C97.2365 85.2789 97.1398 85.5123 96.9735 85.6923C96.8073 85.8724 96.5823 85.9873 96.339 86.0164C91.9424 86.2043 78.3231 84.3684 73.7279 85.1736C73.191 85.2703 72.724 84.6797 72.7562 84.1429C73.1159 77.191 72.5951 65.9714 71.747 58.8477C71.2101 54.1934 71.2101 49.3244 75.0914 48.4977C77.9795 47.8857 91.6042 47.3489 95.8022 49.0989Z" fill="#407BFF"/>
<path d="M97.504 55.2725C97.7509 56.4535 98.0408 57.7365 98.3092 58.9605C98.5776 60.1844 98.9105 61.4245 99.254 62.6323C99.5976 63.8402 99.9519 65.0266 100.36 66.1593C100.726 67.2335 101.186 68.2735 101.734 69.2675C101.934 69.6494 102.173 70.0092 102.448 70.3412C102.55 70.4539 102.631 70.5291 102.652 70.5505C102.674 70.572 102.652 70.5989 102.754 70.6311C103.1 70.7455 103.464 70.7929 103.828 70.7706C104.368 70.7472 104.906 70.6898 105.438 70.5988C107.862 70.0884 110.242 69.3884 112.557 68.5052L114.119 71.1894C111.9 72.9707 109.415 74.391 106.753 75.3981C106.011 75.6709 105.246 75.8774 104.467 76.0154C103.524 76.1935 102.558 76.208 101.611 76.0584C101.002 75.9551 100.413 75.7558 99.866 75.4679C99.3734 75.1926 98.9156 74.8592 98.5025 74.4747C97.8476 73.863 97.269 73.1745 96.7793 72.4241C95.2628 69.9313 94.0875 67.2465 93.2845 64.4414C92.8819 63.1155 92.5115 61.7895 92.2109 60.4528C91.9102 59.1161 91.6096 57.817 91.3788 56.3944L97.504 55.2725Z" fill="#FFC3BD"/>
<path d="M88.4584 53.6617C85.1194 60.3774 93.0537 67.9681 93.0537 67.9681L101.901 63.3514C101.283 59.7924 100.269 56.3136 98.8782 52.98C96.3015 47.2466 90.3803 49.8019 88.4584 53.6617Z" fill="#263238"/>
<path d="M111.735 68.8808L114.736 66.9053L115.981 71.3931C115.981 71.3931 114.639 72.966 112.18 71.2536L111.735 68.8808Z" fill="#FFC3BD"/>
<path d="M117.35 68.72L117.253 69.6648C117.205 70.1182 116.986 70.5364 116.641 70.8351L115.981 71.3719L114.736 66.884L115.117 66.7874C115.398 66.7143 115.693 66.7106 115.976 66.7768C116.259 66.8429 116.522 66.9768 116.741 67.1669C116.961 67.3571 117.131 67.5978 117.237 67.8683C117.343 68.1389 117.382 68.4311 117.35 68.72Z" fill="#FFC3BD"/>
</svg>
