<svg width="32" height="33" viewBox="0 0 32 33" fill="none" xmlns="http://www.w3.org/2000/svg">
<g clip-path="url(#clip0)">
<path d="M3.69397 0.0601807C3.39568 0.0601807 3.10961 0.178675 2.89869 0.389595C2.68777 0.600516 2.56928 0.886586 2.56928 1.18487C2.56928 1.48316 2.68777 1.76923 2.89869 1.98015C3.10961 2.19107 3.39568 2.30957 3.69397 2.30957C3.99226 2.30957 4.27833 2.19107 4.48925 1.98015C4.70017 1.76923 4.81866 1.48316 4.81866 1.18487C4.81866 0.886586 4.70017 0.600516 4.48925 0.389595C4.27833 0.178675 3.99226 0.0601807 3.69397 0.0601807ZM3.42405 3.6367C2.53179 3.71168 0.0949541 5.65365 0.0949541 5.65365C-0.055005 5.76612 -0.0100169 5.75862 0.10995 5.96857C0.229918 6.17101 0.214922 6.18601 0.357383 6.08853C0.507342 5.99106 0.754774 5.8336 1.16716 5.57867C2.75673 4.55895 1.42209 6.91331 0.739779 10.8797C0.469852 12.8442 2.23937 11.832 2.69674 11.532C3.14662 11.2396 4.35379 10.4074 4.47376 10.3249C4.63871 10.2124 4.51875 10.1224 4.39128 9.93498C4.30131 9.80752 4.21133 9.89749 4.21133 9.89749C3.72396 10.2199 2.83171 10.8947 2.71174 10.4673C2.56928 10.04 3.48403 7.10826 3.98639 5.09131C4.06887 4.61144 4.29381 3.56172 3.42405 3.6367Z" fill="#407BFF"/>
</g>
<defs>
<clipPath id="clip0">
<rect width="32" height="32" fill="white" transform="translate(0 0.0600586)"/>
</clipPath>
</defs>
</svg>
