<svg width="16" height="20" viewBox="0 0 16 20" fill="none" xmlns="http://www.w3.org/2000/svg">
<path d="M10.1333 8.3L7.77772 10.6556L5.41105 8.3L3.84438 9.86667L6.21105 12.2222L3.85549 14.5778L5.42216 16.1444L7.77772 13.7889L10.1333 16.1444L11.6999 14.5778L9.34438 12.2222L11.6999 9.86667L10.1333 8.3ZM11.6666 1.11111L10.5555 0H4.99994L3.88883 1.11111H-6.10352e-05V3.33333H15.5555V1.11111H11.6666ZM1.11105 17.7778C1.11105 18.3671 1.34518 18.9324 1.76192 19.3491C2.17867 19.7659 2.7439 20 3.33327 20H12.2222C12.8115 20 13.3768 19.7659 13.7935 19.3491C14.2103 18.9324 14.4444 18.3671 14.4444 17.7778V4.44444H1.11105V17.7778ZM3.33327 6.66667H12.2222V17.7778H3.33327V6.66667Z" fill="#EF476F" fill-opacity="0.8"/>
</svg>
